<?xml version="1.0" encoding="utf-8"?>
<!-- Generator: Adobe Illustrator 23.0.1, SVG Export Plug-In . SVG Version: 6.00 Build 0)  -->
<svg version="1.1" id="Layer_1" xmlns="http://www.w3.org/2000/svg" xmlns:xlink="http://www.w3.org/1999/xlink" x="0px" y="0px"
	 viewBox="0 0 1104 370" style="enable-background:new 0 0 1104 370;" xml:space="preserve">
<style type="text/css">
	.st0{fill:#0E0F0F;}
</style>
<polygon class="st0" points="139.54,166.5 120.69,94.13 89,94.13 89,275.87 118.97,275.87 119.42,194.59 128.98,230.95 
	150.1,230.95 159.66,194.59 160.11,275.87 190.08,275.87 190.08,94.13 158.39,94.13 "/>
<path class="st0" d="M257.44,94.13h-22.27c-20.39,0-31.17,11.53-31.17,33.33v115.32c0,21.65,10.86,33.09,31.41,33.09h21.79
	c20.55,0,31.41-11.44,31.41-33.09V127.46C288.61,105.65,277.83,94.13,257.44,94.13 M258.72,128.93v112.15
	c0,5.72-2.35,6.89-5.88,6.89h-11.86c-5.1,0-7.09-1.93-7.09-6.89V128.93c0-4.96,1.92-6.89,6.84-6.89h10.9
	C256.73,122.03,258.72,123.97,258.72,128.93"/>
<polygon class="st0" points="294.06,122.03 316.34,122.03 316.34,275.87 346.23,275.87 346.23,122.03 368.5,122.03 368.5,94.13 
	294.06,94.13 "/>
<polygon class="st0" points="426.98,168.49 405.06,168.49 405.06,94.13 375.16,94.13 375.16,275.87 405.06,275.87 405.06,196.39 
	426.98,196.39 426.98,275.87 456.87,275.87 456.87,94.13 426.98,94.13 "/>
<polygon class="st0" points="472.01,275.87 536.28,275.87 536.28,247.97 501.9,247.97 501.9,196.39 532.4,196.39 532.4,168.49 
	501.9,168.49 501.9,122.03 536.28,122.03 536.28,94.13 472.01,94.13 "/>
<path class="st0" d="M626.16,160.19v-32.73c0-21.81-10.36-33.34-29.95-33.34h-48.84v181.75h29.89V197.1h8.04l15.25,78.77h28.86
	l-16.56-82.51C621.68,188.18,626.16,175.46,626.16,160.19 M596.27,131.36v28.46c0,8.22-3.58,9.33-7.09,9.33h-11.93v-47.12h11.93
	C592.68,122.04,596.27,123.14,596.27,131.36"/>
<path class="st0" d="M816.97,94.13h-17.43c-20.39,0-31.17,11.53-31.17,33.33v148.41h29.9v-79.23h19.98v79.23h29.89V127.46
	C848.13,105.65,837.35,94.13,816.97,94.13 M818.24,128.93v39.81h-19.98v-39.81c0-4.96,1.92-6.89,6.84-6.89h6.29
	C816.32,122.03,818.24,123.97,818.24,128.93"/>
<path class="st0" d="M906.85,94.13h-14.53c-20.39,0-31.17,11.53-31.17,33.34v35.84c0,4.9,0.55,9,1.63,12.18
	c1.17,3.43,3.11,6.28,5.76,8.46c2.36,1.94,5.97,4.2,11.01,6.91l21.92,12.37c2.72,1.68,4.69,3.04,5.84,4.05
	c0.28,0.24,0.8,1.41,0.8,4.06v29.75c0,5.72-2.35,6.89-5.88,6.89h-4.11c-5.1,0-7.08-1.93-7.08-6.89v-13.96h-29.9v13.23
	c0,23.24,10.78,35.53,31.17,35.53h14.28c20.55,0,31.41-11.36,31.41-32.85v-37.3c0-6.88-0.66-11.36-2.07-14.1
	c-1.35-2.63-3.26-4.89-5.66-6.73c-2.18-1.66-5.68-3.86-10.72-6.74l-21.87-11.85c-2.74-1.69-4.71-3.05-5.84-4.05
	c-0.28-0.25-0.8-1.4-0.8-4.06v-29.01c0-5.13,1.85-7.13,6.6-7.13h3.63c4.92,0,6.84,2,6.84,7.13v19.81h29.89v-21.52
	C938.02,105.65,927.24,94.13,906.85,94.13"/>
<polygon class="st0" points="1015,122.03 1015,94.13 950.73,94.13 950.73,275.87 1015,275.87 1015,247.97 980.62,247.97 
	980.62,196.39 1011.13,196.39 1011.13,168.49 980.62,168.49 980.62,122.03 "/>
<path class="st0" d="M742.31,182.1c7.71-3.69,11.61-10.16,11.61-19.29v-33.64c0-22.93-11.86-35.04-34.32-35.04h-43.03v181.75h50.05
	c19.44,0,29.71-10.18,29.71-29.44v-43.88C756.34,193.39,751.63,186.53,742.31,182.1 M706.47,197.01h9.51
	c7.34,0,10.47,2.72,10.47,9.08v32.55c0,1.67,0.5,9.32-8.95,9.32h-11.03V197.01z M724.03,158.67c0,6.54-2.99,9.33-9.99,9.33h-7.57
	v-45.96h10.48c3.51,0,7.08,1.11,7.08,9.33V158.67z"/>
</svg>
