<svg xmlns="http://www.w3.org/2000/svg" viewBox="0 0 270.16 48"><title>StartupBus Logo in White</title><g id="af8e1be7-f1cf-4067-a28e-68f3640dac42" data-name="Layer 2"><g id="196f1bd6-94f8-442d-8f10-380072596257" data-name="Layer 1"><path d="M88.05,34.42A15.63,15.63,0,0,0,98.7,38.25c6,0,9.78-3,9.78-8.12,0-3.82-2.41-7.44-7.62-8.07-1.34-.16-2.4-.32-3.14-.44-2.83-.43-4-2-4-3.58,0-2.68,2.08-4,4.66-4a13,13,0,0,1,6.9,2.16l2.34-3.49a16.31,16.31,0,0,0-9-2.89c-5.76,0-9.08,3.36-9.08,8.16,0,4.06,2.58,7.21,7.39,7.88,1.46.2,2.44.35,3.69.51,2.51.32,3.65,1.81,3.65,3.78,0,2.33-2.08,3.9-5.53,3.9a12.8,12.8,0,0,1-7.91-2.79Z" style="fill:#fff;fill-rule:evenodd"/><path d="M113.11,18.05h-2V21h2V33c0,3.18,2,5,4.71,5h2.08V34.14h-1.49c-1,0-1.42-.4-1.42-1.51V21h2.91V18.05H117V12h-3.88Z" style="fill:#fff;fill-rule:evenodd"/><path d="M134.05,30.9c0,3.2-1.14,3.57-4.48,3.57-2.71,0-3.77-1.22-3.77-2.6s1.1-2.46,3.46-2.46h4.79Zm0,7h3.89V24.29c0-5-3.28-6.67-8.17-6.67-3,0-5.21.79-6.76,2.94L126.19,23c.71-1.16,1.69-1.56,3.77-1.56,2.87,0,4.09.68,4.09,2.61v2.12h-5.54c-4.31,0-6.54,2.66-6.54,5.87,0,3.58,2.63,6.25,7.09,6.25,2.71,0,4.09-.64,4.91-2h.08Z" style="fill:#fff;fill-rule:evenodd"/><path d="M143.21,37.92h3.89V25.8c0-2.94,1.93-4.21,3.89-4.21a3.92,3.92,0,0,1,2.63,1l2.91-3.39a6.77,6.77,0,0,0-4.16-1.49A6.48,6.48,0,0,0,147.18,20h-.08v-2h-3.89Z" style="fill:#fff;fill-rule:evenodd"/><path d="M158.92,18.05h-2V21h2V33c0,3.18,2,5,4.72,5h2.08V34.14h-1.49c-1,0-1.42-.4-1.42-1.51V21h2.91V18.05h-2.91V12h-3.89Z" style="fill:#fff;fill-rule:evenodd"/><path d="M169.4,31.38A6.53,6.53,0,0,0,176,38.2a6.44,6.44,0,0,0,5.14-2.28h.08v2h3.89V18h-3.89V29.85c0,2.88-1.69,4.47-3.93,4.47s-4-1.59-4-4.33V18H169.4Z" style="fill:#fff;fill-rule:evenodd"/><path d="M198.16,34.32c-3.73,0-3.93-3.35-3.93-6.26,0-3.08.2-6.47,3.93-6.47s4,3.19,4,6.38S201.93,34.32,198.16,34.32ZM190.34,46.1h3.89V35.92a7.42,7.42,0,0,0,5.14,2.28,6.36,6.36,0,0,0,5.27-2.51C205.71,34.32,206,33,206,28s-.3-6.38-1.37-7.75a6.37,6.37,0,0,0-5.27-2.52A7.14,7.14,0,0,0,194.23,20v-2h-3.89Z" style="fill:#fff;fill-rule:evenodd"/><path d="M221.35,13.91c2.9,0,4.34,1.78,4.34,3.86s-1.44,3.85-4.46,3.85h-6V13.91Zm.27,11.54c3.3,0,4.72,2,4.72,4.27S224.92,34,221.75,34h-6.57V25.45ZM211,37.88h11.82A7.56,7.56,0,0,0,230.56,30c0-2.87-1.48-5.83-4.53-6.54v-.09a6.1,6.1,0,0,0,3.87-5.87c0-4.26-2.81-7.41-8.21-7.41H211Z" style="fill:#fff;fill-rule:evenodd"/><path d="M234.52,31.38a6.53,6.53,0,0,0,6.56,6.82,6.46,6.46,0,0,0,5.15-2.28h.08v2h3.88V18h-3.88V29.85c0,2.88-1.69,4.47-3.93,4.47s-4-1.59-4-4.33V18h-3.89Z" style="fill:#fff;fill-rule:evenodd"/><path d="M253.19,34.66a12.19,12.19,0,0,0,8.73,3.63c4.73,0,8.24-2.27,8.24-6.23,0-3.23-1.6-5.79-5.7-6.06l-3.39-.24c-2.05-.16-2.69-1-2.69-1.9,0-1.39.88-2.42,3.5-2.42a8.86,8.86,0,0,1,5.42,1.86l2.4-2.93a11,11,0,0,0-7.82-2.75c-4.27,0-7.39,2.11-7.39,6.2,0,3.45,2.36,5.44,5.66,5.72l3.62.32c1.41.12,2.5.56,2.5,2,0,1.73-1.69,2.61-4,2.61a8.09,8.09,0,0,1-6.3-2.61Z" style="fill:#fff;fill-rule:evenodd"/><path d="M56.34,5.82C56.34,4.21,45.87,0,38.6,0c-7.57,0-18,4.21-18,5.82V24.71a4.74,4.74,0,0,1,.87,2.49,4.74,4.74,0,0,1-.87,2.49v9A6,6,0,0,0,22,42.3v4.26c0,.4.25,1.08.56,1.08A6.87,6.87,0,0,0,24.9,48a7,7,0,0,0,2.37-.36c.31,0,.56-.68.56-1.08V43.74a81.92,81.92,0,0,0,10.48.77,84.65,84.65,0,0,0,10.76-.78v2.83c0,.4.25,1.08.57,1.08A6.78,6.78,0,0,0,52,48a7,7,0,0,0,2.37-.36c.32,0,.57-.68.57-1.08V42.3a6,6,0,0,0,1.45-3.61v-9a4.74,4.74,0,0,1-.87-2.49,4.74,4.74,0,0,1,.87-2.49Zm-26.61,0A1.31,1.31,0,0,1,31,4.46H45.88a1.31,1.31,0,0,1,1.3,1.33V6a1.31,1.31,0,0,1-1.3,1.32H31A1.31,1.31,0,0,1,29.73,6Zm-4.51,31a2.62,2.62,0,1,1,2.61-2.62A2.62,2.62,0,0,1,25.22,36.8Zm4.36.29a1.17,1.17,0,1,1,1.16-1.16A1.16,1.16,0,0,1,29.58,37.09Zm17.75,0a1.17,1.17,0,1,1,1.16-1.16A1.16,1.16,0,0,1,47.33,37.09Zm4.36-.29a2.62,2.62,0,1,1,2.62-2.62A2.62,2.62,0,0,1,51.69,36.8ZM54.6,23.49c0,1.61-2.76,5-4.37,5a45.46,45.46,0,0,1-11.92,1.31,44.36,44.36,0,0,1-11.64-1.31c-1.61,0-4.36-3.34-4.36-5v-9.6A2.91,2.91,0,0,1,25.22,11H51.69a2.91,2.91,0,0,1,2.91,2.91Z" style="fill:#fff;fill-rule:evenodd"/><path d="M76.84,24a18.91,18.91,0,0,0-2.16-8.81L72.1,16.58a16,16,0,0,1,0,14.86l2.58,1.35A18.92,18.92,0,0,0,76.84,24Z" style="fill:#fff;fill-rule:evenodd"/><path d="M71.21,24a14.45,14.45,0,0,0-1.68-6.78L67,18.61a11.67,11.67,0,0,1,0,10.8l2.58,1.35A14.57,14.57,0,0,0,71.21,24Z" style="fill:#fff;fill-rule:evenodd"/><path d="M65.86,24a10.28,10.28,0,0,0-1.17-4.76l-2.58,1.36a7.32,7.32,0,0,1,0,6.75l2.58,1.35A10.17,10.17,0,0,0,65.86,24Z" style="fill:#fff;fill-rule:evenodd"/><path d="M0,24a18.8,18.8,0,0,1,2.17-8.81l2.57,1.35a16.12,16.12,0,0,0,0,14.86L2.14,32.79A18.81,18.81,0,0,1,0,24Z" style="fill:#fff;fill-rule:evenodd"/><path d="M5.64,24a14.44,14.44,0,0,1,1.67-6.78l2.57,1.35a11.67,11.67,0,0,0,0,10.8L7.28,30.76A14.45,14.45,0,0,1,5.64,24Z" style="fill:#fff;fill-rule:evenodd"/><path d="M11,24a10.17,10.17,0,0,1,1.18-4.76l2.57,1.36a7.32,7.32,0,0,0,0,6.75l-2.57,1.35A10.17,10.17,0,0,1,11,24Z" style="fill:#fff;fill-rule:evenodd"/></g></g></svg>