<?xml version="1.0" encoding="utf-8"?>
<!-- Generator: Adobe Illustrator 16.0.0, SVG Export Plug-In . SVG Version: 6.00 Build 0)  -->
<!DOCTYPE svg PUBLIC "-//W3C//DTD SVG 1.1//EN" "http://www.w3.org/Graphics/SVG/1.1/DTD/svg11.dtd">
<svg version="1.1" id="Layer_1" xmlns="http://www.w3.org/2000/svg" xmlns:xlink="http://www.w3.org/1999/xlink" x="0px" y="0px"
	 width="213.991px" height="26.726px" viewBox="0 0 213.991 26.726" enable-background="new 0 0 213.991 26.726"
	 xml:space="preserve">
<g>
	<g>
		<path fill="#1E1C1C" d="M52.18,6.861c-0.455-0.575-1.072-1.001-1.85-1.276c-0.779-0.275-1.514-0.413-2.208-0.413
			c-0.407,0-0.826,0.048-1.258,0.144c-0.431,0.097-0.838,0.247-1.222,0.449c-0.382,0.204-0.694,0.473-0.934,0.809
			C44.47,6.909,44.35,7.315,44.35,7.795c0,0.767,0.287,1.353,0.862,1.761c0.574,0.406,1.299,0.754,2.173,1.041
			c0.874,0.287,1.814,0.575,2.82,0.861c1.005,0.287,1.945,0.695,2.819,1.223c0.875,0.525,1.598,1.234,2.173,2.118
			c0.575,0.887,0.862,2.071,0.862,3.557c0,1.414-0.264,2.646-0.79,3.699c-0.527,1.054-1.24,1.929-2.137,2.622
			c-0.898,0.695-1.94,1.211-3.125,1.544c-1.186,0.337-2.438,0.505-3.754,0.505c-1.652,0-3.185-0.252-4.598-0.755
			s-2.729-1.315-3.952-2.442l3.988-4.383c0.574,0.768,1.298,1.359,2.172,1.777c0.874,0.42,1.777,0.629,2.712,0.629
			c0.455,0,0.917-0.054,1.382-0.16c0.467-0.109,0.887-0.271,1.258-0.486c0.371-0.215,0.67-0.49,0.898-0.826
			c0.228-0.334,0.341-0.73,0.341-1.186c0-0.766-0.293-1.369-0.88-1.812s-1.323-0.821-2.209-1.133
			c-0.886-0.311-1.844-0.622-2.874-0.934c-1.03-0.311-1.988-0.73-2.873-1.258c-0.887-0.526-1.624-1.221-2.209-2.083
			c-0.587-0.862-0.88-1.999-0.88-3.412c0-1.366,0.269-2.563,0.808-3.592c0.54-1.029,1.258-1.892,2.155-2.587
			c0.899-0.693,1.935-1.216,3.108-1.562C45.774,0.175,46.984,0,48.229,0c1.437,0,2.826,0.202,4.167,0.61s2.55,1.09,3.628,2.047
			L52.18,6.861z"/>
		<path fill="#1E1C1C" d="M75.781,0.646h4.633l11.064,25.433h-6.322l-2.191-5.388h-9.878l-2.12,5.388h-6.178L75.781,0.646z
			 M77.936,8.046l-3.089,7.902h6.214L77.936,8.046z"/>
		<path fill="#1E1C1C" d="M101.213,0.646h9.483c1.102,0,2.209,0.08,3.322,0.234c1.114,0.156,2.113,0.467,3,0.934
			c0.886,0.468,1.604,1.119,2.155,1.957c0.552,0.84,0.825,1.953,0.825,3.342c0,1.438-0.4,2.628-1.202,3.573
			c-0.804,0.946-1.862,1.624-3.18,2.03v0.072c0.838,0.119,1.599,0.354,2.281,0.7c0.683,0.348,1.269,0.79,1.761,1.329
			c0.49,0.539,0.867,1.168,1.131,1.886s0.395,1.485,0.395,2.298c0,1.344-0.287,2.461-0.861,3.36
			c-0.574,0.896-1.317,1.622-2.227,2.173c-0.91,0.552-1.935,0.947-3.071,1.185c-1.139,0.239-2.271,0.359-3.396,0.359h-10.417V0.646z
			 M106.816,10.812h4.059c0.432,0,0.855-0.047,1.275-0.144c0.418-0.095,0.795-0.251,1.132-0.468
			c0.334-0.215,0.604-0.502,0.808-0.861c0.203-0.358,0.305-0.789,0.305-1.293c0-0.526-0.113-0.964-0.341-1.311
			c-0.228-0.348-0.521-0.617-0.88-0.809s-0.766-0.329-1.221-0.413s-0.898-0.126-1.329-0.126h-3.808V10.812z M106.816,21.337h5.03
			c0.431,0,0.867-0.047,1.311-0.145c0.443-0.096,0.844-0.264,1.203-0.502c0.359-0.239,0.652-0.551,0.88-0.935
			c0.228-0.383,0.341-0.849,0.341-1.4c0-0.599-0.148-1.083-0.448-1.455c-0.3-0.37-0.678-0.652-1.132-0.845
			c-0.455-0.19-0.945-0.322-1.473-0.395s-1.018-0.107-1.473-0.107h-4.239V21.337z"/>
		<path fill="#1E1C1C" d="M131.889,0.646h5.604v20.26h10.381v5.173h-15.984V0.646z"/>
		<path fill="#1E1C1C" d="M158.362,0.646h17.277v5.174h-11.674v4.741h11.028v5.173h-11.028v5.172h12.321v5.173h-17.925V0.646z"/>
	</g>
	<rect y="20.993" fill="#1E1C1C" width="4.555" height="4.555"/>
	<rect x="209.436" y="20.993" fill="#1E1C1C" width="4.555" height="4.555"/>
</g>
</svg>
